<svg xmlns="http://www.w3.org/2000/svg" xmlns:xlink="http://www.w3.org/1999/xlink" width="100" zoomAndPan="magnify" viewBox="0 0 75 30.000001" height="40" preserveAspectRatio="xMidYMid meet" version="1.0"><defs><g/><clipPath id="fc62a470cd"><path d="M 1.210938 10 L 5 10 L 5 20 L 1.210938 20 Z M 1.210938 10 " clip-rule="nonzero"/></clipPath><clipPath id="7358257bf9"><path d="M 4 8 L 10 8 L 10 21.273438 L 4 21.273438 Z M 4 8 " clip-rule="nonzero"/></clipPath><clipPath id="38a8a98c56"><path d="M 9 7.480469 L 14.273438 7.480469 L 14.273438 20 L 9 20 Z M 9 7.480469 " clip-rule="nonzero"/></clipPath></defs><g clip-path="url(#fc62a470cd)"><path fill="#8060f6" d="M 4.453125 19.660156 L 4.453125 12.171875 L 1.210938 10.300781 L 1.210938 17.789062 Z M 4.453125 19.660156 " fill-opacity="1" fill-rule="evenodd"/></g><g clip-path="url(#7358257bf9)"><path fill="#8060f6" d="M 6.074219 13.109375 L 6.074219 20.601562 L 7.695312 21.535156 L 9.316406 20.601562 L 9.316406 11.234375 L 7.695312 10.300781 L 4.453125 8.425781 L 4.453125 12.171875 Z M 6.074219 13.109375 " fill-opacity="1" fill-rule="evenodd"/></g><g clip-path="url(#38a8a98c56)"><path fill="#8060f6" d="M 10.941406 15.917969 L 10.941406 19.660156 L 14.183594 17.789062 L 14.183594 10.300781 L 10.941406 8.425781 L 9.316406 7.492188 L 9.316406 11.234375 L 10.941406 12.171875 Z M 10.941406 15.917969 " fill-opacity="1" fill-rule="evenodd"/></g><g fill="#1b1239" fill-opacity="1"><g transform="translate(19.108844, 20.341358)"><g><path d="M 5.078125 -9.59375 C 6.535156 -9.59375 7.65625 -9.242188 8.4375 -8.546875 C 9.226562 -7.847656 9.625 -6.796875 9.625 -5.390625 L 9.625 0 L 7.0625 0 L 7.0625 -1.171875 C 6.539062 -0.296875 5.582031 0.140625 4.1875 0.140625 C 3.457031 0.140625 2.828125 0.0195312 2.296875 -0.21875 C 1.765625 -0.46875 1.359375 -0.804688 1.078125 -1.234375 C 0.796875 -1.671875 0.65625 -2.164062 0.65625 -2.71875 C 0.65625 -3.601562 0.984375 -4.296875 1.640625 -4.796875 C 2.304688 -5.296875 3.328125 -5.546875 4.703125 -5.546875 L 6.890625 -5.546875 C 6.890625 -6.148438 6.707031 -6.609375 6.34375 -6.921875 C 5.976562 -7.242188 5.429688 -7.40625 4.703125 -7.40625 C 4.203125 -7.40625 3.707031 -7.328125 3.21875 -7.171875 C 2.738281 -7.015625 2.328125 -6.800781 1.984375 -6.53125 L 1 -8.453125 C 1.519531 -8.804688 2.140625 -9.082031 2.859375 -9.28125 C 3.578125 -9.488281 4.316406 -9.59375 5.078125 -9.59375 Z M 4.859375 -1.703125 C 5.328125 -1.703125 5.742188 -1.8125 6.109375 -2.03125 C 6.472656 -2.25 6.734375 -2.566406 6.890625 -2.984375 L 6.890625 -3.953125 L 5 -3.953125 C 3.875 -3.953125 3.3125 -3.582031 3.3125 -2.84375 C 3.3125 -2.488281 3.445312 -2.207031 3.71875 -2 C 4 -1.800781 4.378906 -1.703125 4.859375 -1.703125 Z M 4.859375 -1.703125 "/></g></g></g><g fill="#1b1239" fill-opacity="1"><g transform="translate(29.945889, 20.341358)"><g><path d="M 5.078125 -9.59375 C 6.535156 -9.59375 7.65625 -9.242188 8.4375 -8.546875 C 9.226562 -7.847656 9.625 -6.796875 9.625 -5.390625 L 9.625 0 L 7.0625 0 L 7.0625 -1.171875 C 6.539062 -0.296875 5.582031 0.140625 4.1875 0.140625 C 3.457031 0.140625 2.828125 0.0195312 2.296875 -0.21875 C 1.765625 -0.46875 1.359375 -0.804688 1.078125 -1.234375 C 0.796875 -1.671875 0.65625 -2.164062 0.65625 -2.71875 C 0.65625 -3.601562 0.984375 -4.296875 1.640625 -4.796875 C 2.304688 -5.296875 3.328125 -5.546875 4.703125 -5.546875 L 6.890625 -5.546875 C 6.890625 -6.148438 6.707031 -6.609375 6.34375 -6.921875 C 5.976562 -7.242188 5.429688 -7.40625 4.703125 -7.40625 C 4.203125 -7.40625 3.707031 -7.328125 3.21875 -7.171875 C 2.738281 -7.015625 2.328125 -6.800781 1.984375 -6.53125 L 1 -8.453125 C 1.519531 -8.804688 2.140625 -9.082031 2.859375 -9.28125 C 3.578125 -9.488281 4.316406 -9.59375 5.078125 -9.59375 Z M 4.859375 -1.703125 C 5.328125 -1.703125 5.742188 -1.8125 6.109375 -2.03125 C 6.472656 -2.25 6.734375 -2.566406 6.890625 -2.984375 L 6.890625 -3.953125 L 5 -3.953125 C 3.875 -3.953125 3.3125 -3.582031 3.3125 -2.84375 C 3.3125 -2.488281 3.445312 -2.207031 3.71875 -2 C 4 -1.800781 4.378906 -1.703125 4.859375 -1.703125 Z M 4.859375 -1.703125 "/></g></g></g><g fill="#1b1239" fill-opacity="1"><g transform="translate(40.782935, 20.341358)"><g><path d="M 5.078125 -9.59375 C 6.535156 -9.59375 7.65625 -9.242188 8.4375 -8.546875 C 9.226562 -7.847656 9.625 -6.796875 9.625 -5.390625 L 9.625 0 L 7.0625 0 L 7.0625 -1.171875 C 6.539062 -0.296875 5.582031 0.140625 4.1875 0.140625 C 3.457031 0.140625 2.828125 0.0195312 2.296875 -0.21875 C 1.765625 -0.46875 1.359375 -0.804688 1.078125 -1.234375 C 0.796875 -1.671875 0.65625 -2.164062 0.65625 -2.71875 C 0.65625 -3.601562 0.984375 -4.296875 1.640625 -4.796875 C 2.304688 -5.296875 3.328125 -5.546875 4.703125 -5.546875 L 6.890625 -5.546875 C 6.890625 -6.148438 6.707031 -6.609375 6.34375 -6.921875 C 5.976562 -7.242188 5.429688 -7.40625 4.703125 -7.40625 C 4.203125 -7.40625 3.707031 -7.328125 3.21875 -7.171875 C 2.738281 -7.015625 2.328125 -6.800781 1.984375 -6.53125 L 1 -8.453125 C 1.519531 -8.804688 2.140625 -9.082031 2.859375 -9.28125 C 3.578125 -9.488281 4.316406 -9.59375 5.078125 -9.59375 Z M 4.859375 -1.703125 C 5.328125 -1.703125 5.742188 -1.8125 6.109375 -2.03125 C 6.472656 -2.25 6.734375 -2.566406 6.890625 -2.984375 L 6.890625 -3.953125 L 5 -3.953125 C 3.875 -3.953125 3.3125 -3.582031 3.3125 -2.84375 C 3.3125 -2.488281 3.445312 -2.207031 3.71875 -2 C 4 -1.800781 4.378906 -1.703125 4.859375 -1.703125 Z M 4.859375 -1.703125 "/></g></g></g><g fill="#1b1239" fill-opacity="1"><g transform="translate(51.61998, 20.341358)"><g><path d="M 5.078125 -9.59375 C 6.535156 -9.59375 7.65625 -9.242188 8.4375 -8.546875 C 9.226562 -7.847656 9.625 -6.796875 9.625 -5.390625 L 9.625 0 L 7.0625 0 L 7.0625 -1.171875 C 6.539062 -0.296875 5.582031 0.140625 4.1875 0.140625 C 3.457031 0.140625 2.828125 0.0195312 2.296875 -0.21875 C 1.765625 -0.46875 1.359375 -0.804688 1.078125 -1.234375 C 0.796875 -1.671875 0.65625 -2.164062 0.65625 -2.71875 C 0.65625 -3.601562 0.984375 -4.296875 1.640625 -4.796875 C 2.304688 -5.296875 3.328125 -5.546875 4.703125 -5.546875 L 6.890625 -5.546875 C 6.890625 -6.148438 6.707031 -6.609375 6.34375 -6.921875 C 5.976562 -7.242188 5.429688 -7.40625 4.703125 -7.40625 C 4.203125 -7.40625 3.707031 -7.328125 3.21875 -7.171875 C 2.738281 -7.015625 2.328125 -6.800781 1.984375 -6.53125 L 1 -8.453125 C 1.519531 -8.804688 2.140625 -9.082031 2.859375 -9.28125 C 3.578125 -9.488281 4.316406 -9.59375 5.078125 -9.59375 Z M 4.859375 -1.703125 C 5.328125 -1.703125 5.742188 -1.8125 6.109375 -2.03125 C 6.472656 -2.25 6.734375 -2.566406 6.890625 -2.984375 L 6.890625 -3.953125 L 5 -3.953125 C 3.875 -3.953125 3.3125 -3.582031 3.3125 -2.84375 C 3.3125 -2.488281 3.445312 -2.207031 3.71875 -2 C 4 -1.800781 4.378906 -1.703125 4.859375 -1.703125 Z M 4.859375 -1.703125 "/></g></g></g><g fill="#1b1239" fill-opacity="1"><g transform="translate(62.457026, 20.341358)"><g><path d="M 5.078125 -9.59375 C 6.535156 -9.59375 7.65625 -9.242188 8.4375 -8.546875 C 9.226562 -7.847656 9.625 -6.796875 9.625 -5.390625 L 9.625 0 L 7.0625 0 L 7.0625 -1.171875 C 6.539062 -0.296875 5.582031 0.140625 4.1875 0.140625 C 3.457031 0.140625 2.828125 0.0195312 2.296875 -0.21875 C 1.765625 -0.46875 1.359375 -0.804688 1.078125 -1.234375 C 0.796875 -1.671875 0.65625 -2.164062 0.65625 -2.71875 C 0.65625 -3.601562 0.984375 -4.296875 1.640625 -4.796875 C 2.304688 -5.296875 3.328125 -5.546875 4.703125 -5.546875 L 6.890625 -5.546875 C 6.890625 -6.148438 6.707031 -6.609375 6.34375 -6.921875 C 5.976562 -7.242188 5.429688 -7.40625 4.703125 -7.40625 C 4.203125 -7.40625 3.707031 -7.328125 3.21875 -7.171875 C 2.738281 -7.015625 2.328125 -6.800781 1.984375 -6.53125 L 1 -8.453125 C 1.519531 -8.804688 2.140625 -9.082031 2.859375 -9.28125 C 3.578125 -9.488281 4.316406 -9.59375 5.078125 -9.59375 Z M 4.859375 -1.703125 C 5.328125 -1.703125 5.742188 -1.8125 6.109375 -2.03125 C 6.472656 -2.25 6.734375 -2.566406 6.890625 -2.984375 L 6.890625 -3.953125 L 5 -3.953125 C 3.875 -3.953125 3.3125 -3.582031 3.3125 -2.84375 C 3.3125 -2.488281 3.445312 -2.207031 3.71875 -2 C 4 -1.800781 4.378906 -1.703125 4.859375 -1.703125 Z M 4.859375 -1.703125 "/></g></g></g></svg>