<svg xmlns="http://www.w3.org/2000/svg" xmlns:xlink="http://www.w3.org/1999/xlink" width="1366" zoomAndPan="magnify" viewBox="0 0 1024.5 576" height="768" preserveAspectRatio="xMidYMid meet" version="1.0"><path stroke-linecap="round" transform="matrix(0.426452, 0, 0, 0.426452, 335.43907, 195.841806)" fill-opacity="1" fill="#fffbfb" fill-rule="nonzero" stroke-linejoin="round" d="M -0.00368188 -51.437338 C 28.410272 -51.437338 51.438216 -28.409395 51.438216 0.00455902 C 51.438216 28.409353 28.410272 51.437297 -0.00368188 51.437297 C -28.408476 51.437297 -51.436419 28.409353 -51.436419 0.00455902 C -51.436419 -28.409395 -28.408476 -51.437338 -0.00368188 -51.437338 Z M -0.00368188 -51.437338 " stroke="#1b1239" stroke-width="6" stroke-opacity="1" stroke-miterlimit="4"/><path stroke-linecap="round" transform="matrix(0.426452, 0, 0, 0.426452, 342.30279, 187.886343)" fill="none" stroke-linejoin="round" d="M -35.343534 13.392628 C -35.343534 13.392628 -16.098622 32.784099 -16.098622 32.784099 C -16.098622 32.784099 35.343275 -32.782337 35.343275 -32.782337 " stroke="#1b1239" stroke-width="6" stroke-opacity="1" stroke-miterlimit="4"/><path fill="#fffbfb" d="M 324.210938 334.46875 C 324.210938 334.46875 383.070312 334.46875 383.070312 334.46875 C 383.070312 334.46875 383.070312 391.628906 383.070312 391.628906 C 383.070312 391.628906 324.210938 391.628906 324.210938 391.628906 C 324.210938 391.628906 324.210938 334.46875 324.210938 334.46875 Z M 324.210938 334.46875 " fill-opacity="1" fill-rule="nonzero"/><path fill="#1b1239" d="M 381.789062 335.746094 C 381.789062 335.746094 381.789062 390.351562 381.789062 390.351562 C 381.789062 390.351562 325.488281 390.351562 325.488281 390.351562 C 325.488281 390.351562 325.488281 335.746094 325.488281 335.746094 C 325.488281 335.746094 381.789062 335.746094 381.789062 335.746094 M 384.347656 333.1875 C 384.347656 333.1875 322.929688 333.1875 322.929688 333.1875 C 322.929688 333.1875 322.929688 392.910156 322.929688 392.910156 C 322.929688 392.910156 384.347656 392.910156 384.347656 392.910156 C 384.347656 392.910156 384.347656 333.1875 384.347656 333.1875 Z M 384.347656 333.1875 " fill-opacity="1" fill-rule="nonzero"/><path fill="#fffbfb" d="M 330.929688 353.503906 C 330.929688 353.503906 376.351562 353.503906 376.351562 353.503906 C 376.351562 353.503906 376.351562 383.894531 376.351562 383.894531 C 376.351562 383.894531 330.929688 383.894531 330.929688 383.894531 C 330.929688 383.894531 330.929688 353.503906 330.929688 353.503906 Z M 330.929688 353.503906 " fill-opacity="1" fill-rule="nonzero"/><path fill="#1b1239" d="M 375.070312 354.785156 C 375.070312 354.785156 375.070312 382.613281 375.070312 382.613281 C 375.070312 382.613281 332.210938 382.613281 332.210938 382.613281 C 332.210938 382.613281 332.210938 354.785156 332.210938 354.785156 C 332.210938 354.785156 375.074219 354.785156 375.074219 354.785156 M 377.632812 352.226562 C 377.632812 352.226562 329.652344 352.226562 329.652344 352.226562 C 329.652344 352.226562 329.652344 385.171875 329.652344 385.171875 C 329.652344 385.171875 377.632812 385.171875 377.632812 385.171875 C 377.632812 385.171875 377.632812 352.226562 377.632812 352.226562 Z M 377.632812 352.226562 " fill-opacity="1" fill-rule="nonzero"/><path fill="#1b1239" d="M 322.929688 333.1875 C 322.929688 333.1875 384.347656 333.1875 384.347656 333.1875 C 384.347656 333.1875 384.347656 346.777344 384.347656 346.777344 C 384.347656 346.777344 322.929688 346.777344 322.929688 346.777344 C 322.929688 346.777344 322.929688 333.1875 322.929688 333.1875 Z M 322.929688 333.1875 " fill-opacity="1" fill-rule="nonzero"/><path stroke-linecap="round" transform="matrix(0.426452, 0, 0, 0.426452, 361.375854, 368.548458)" fill="none" stroke-linejoin="round" d="M -0.00200257 -35.644812 C -0.00200257 -35.644812 -0.00200257 35.64655 -0.00200257 35.64655 " stroke="#1b1239" stroke-width="6" stroke-opacity="1" stroke-miterlimit="4"/><path stroke-linecap="round" transform="matrix(0.426452, 0, 0, 0.426452, 353.637903, 368.546349)" fill="none" stroke-linejoin="round" d="M 52.391749 0.00123352 C 52.391749 0.00123352 -52.397302 0.00123352 -52.397302 0.00123352 " stroke="#1b1239" stroke-width="6" stroke-opacity="1" stroke-miterlimit="4"/><path fill="#fffbfb" d="M 624.5625 423.308594 C 624.5625 423.308594 668.429688 423.308594 668.429688 423.308594 C 668.429688 423.308594 668.429688 493.734375 668.429688 493.734375 C 668.429688 493.734375 624.5625 493.734375 624.5625 493.734375 C 624.5625 493.734375 624.5625 423.308594 624.5625 423.308594 Z M 624.5625 423.308594 " fill-opacity="1" fill-rule="nonzero"/><path fill="#1b1239" d="M 667.152344 424.585938 C 667.152344 424.585938 667.152344 492.457031 667.152344 492.457031 C 667.152344 492.457031 625.839844 492.457031 625.839844 492.457031 C 625.839844 492.457031 625.839844 424.585938 625.839844 424.585938 C 625.839844 424.585938 667.152344 424.585938 667.152344 424.585938 M 669.710938 422.027344 C 669.710938 422.027344 623.28125 422.027344 623.28125 422.027344 C 623.28125 422.027344 623.28125 495.015625 623.28125 495.015625 C 623.28125 495.015625 669.710938 495.015625 669.710938 495.015625 C 669.710938 495.015625 669.710938 422.027344 669.710938 422.027344 Z M 669.710938 422.027344 " fill-opacity="1" fill-rule="nonzero"/><path fill="#fffbfb" d="M 629.945312 466.46875 C 629.945312 466.46875 663.042969 466.46875 663.042969 466.46875 C 663.042969 466.46875 663.042969 487.203125 663.042969 487.203125 C 663.042969 487.203125 629.945312 487.203125 629.945312 487.203125 C 629.945312 487.203125 629.945312 466.46875 629.945312 466.46875 Z M 629.945312 466.46875 " fill-opacity="1" fill-rule="nonzero"/><path fill="#1b1239" d="M 661.765625 467.746094 C 661.765625 467.746094 661.765625 485.921875 661.765625 485.921875 C 661.765625 485.921875 631.226562 485.921875 631.226562 485.921875 C 631.226562 485.921875 631.226562 467.746094 631.226562 467.746094 C 631.226562 467.746094 661.765625 467.746094 661.765625 467.746094 M 664.324219 465.1875 C 664.324219 465.1875 628.667969 465.1875 628.667969 465.1875 C 628.667969 465.1875 628.667969 488.480469 628.667969 488.480469 C 628.667969 488.480469 664.324219 488.480469 664.324219 488.480469 C 664.324219 488.480469 664.324219 465.1875 664.324219 465.1875 Z M 664.324219 465.1875 " fill-opacity="1" fill-rule="nonzero"/><path fill="#fffbfb" d="M 629.945312 448.089844 C 629.945312 448.089844 663.042969 448.089844 663.042969 448.089844 C 663.042969 448.089844 663.042969 458.363281 663.042969 458.363281 C 663.042969 458.363281 629.945312 458.363281 629.945312 458.363281 C 629.945312 458.363281 629.945312 448.089844 629.945312 448.089844 Z M 629.945312 448.089844 " fill-opacity="1" fill-rule="nonzero"/><path fill="#1b1239" d="M 661.765625 449.367188 C 661.765625 449.367188 661.765625 457.082031 661.765625 457.082031 C 661.765625 457.082031 631.226562 457.082031 631.226562 457.082031 C 631.226562 457.082031 631.226562 449.367188 631.226562 449.367188 C 631.226562 449.367188 661.765625 449.367188 661.765625 449.367188 M 664.324219 446.808594 C 664.324219 446.808594 628.667969 446.808594 628.667969 446.808594 C 628.667969 446.808594 628.667969 459.640625 628.667969 459.640625 C 628.667969 459.640625 664.324219 459.640625 664.324219 459.640625 C 664.324219 459.640625 664.324219 446.808594 664.324219 446.808594 Z M 664.324219 446.808594 " fill-opacity="1" fill-rule="nonzero"/><path fill="#fffbfb" d="M 629.945312 430.332031 C 629.945312 430.332031 663.042969 430.332031 663.042969 430.332031 C 663.042969 430.332031 663.042969 439.90625 663.042969 439.90625 C 663.042969 439.90625 629.945312 439.90625 629.945312 439.90625 C 629.945312 439.90625 629.945312 430.332031 629.945312 430.332031 Z M 629.945312 430.332031 " fill-opacity="1" fill-rule="nonzero"/><path fill="#1b1239" d="M 661.765625 431.609375 C 661.765625 431.609375 661.765625 438.625 661.765625 438.625 C 661.765625 438.625 631.226562 438.625 631.226562 438.625 C 631.226562 438.625 631.226562 431.609375 631.226562 431.609375 C 631.226562 431.609375 661.765625 431.609375 661.765625 431.609375 M 664.324219 429.050781 C 664.324219 429.050781 628.667969 429.050781 628.667969 429.050781 C 628.667969 429.050781 628.667969 441.183594 628.667969 441.183594 C 628.667969 441.183594 664.324219 441.183594 664.324219 441.183594 C 664.324219 441.183594 664.324219 429.050781 664.324219 429.050781 Z M 664.324219 429.050781 " fill-opacity="1" fill-rule="nonzero"/><path fill="#fffbfb" d="M 673.691406 125.65625 C 673.691406 125.65625 710.492188 125.65625 710.492188 125.65625 C 710.492188 125.65625 710.492188 185.042969 710.492188 185.042969 C 710.492188 185.042969 673.691406 185.042969 673.691406 185.042969 C 673.691406 185.042969 673.691406 125.65625 673.691406 125.65625 Z M 673.691406 125.65625 " fill-opacity="1" fill-rule="nonzero"/><path fill="#1b1239" d="M 709.210938 126.9375 C 709.210938 126.9375 709.210938 183.765625 709.210938 183.765625 C 709.210938 183.765625 674.972656 183.765625 674.972656 183.765625 C 674.972656 183.765625 674.972656 126.9375 674.972656 126.9375 C 674.972656 126.9375 709.210938 126.9375 709.210938 126.9375 M 711.769531 124.378906 C 711.769531 124.378906 672.414062 124.378906 672.414062 124.378906 C 672.414062 124.378906 672.414062 186.324219 672.414062 186.324219 C 672.414062 186.324219 711.769531 186.324219 711.769531 186.324219 C 711.769531 186.324219 711.769531 124.378906 711.769531 124.378906 Z M 711.769531 124.378906 " fill-opacity="1" fill-rule="nonzero"/><path fill="#fffbfb" d="M 679.046875 146.691406 C 679.046875 146.691406 705.375 146.691406 705.375 146.691406 C 705.375 146.691406 705.375 167.425781 705.375 167.425781 C 705.375 167.425781 679.046875 167.425781 679.046875 167.425781 C 679.046875 167.425781 679.046875 146.691406 679.046875 146.691406 Z M 679.046875 146.691406 " fill-opacity="1" fill-rule="nonzero"/><path fill="#1b1239" d="M 704.09375 147.972656 C 704.09375 147.972656 704.09375 166.148438 704.09375 166.148438 C 704.09375 166.148438 680.328125 166.148438 680.328125 166.148438 C 680.328125 166.148438 680.328125 147.972656 680.328125 147.972656 C 680.328125 147.972656 704.09375 147.972656 704.09375 147.972656 M 706.652344 145.414062 C 706.652344 145.414062 677.769531 145.414062 677.769531 145.414062 C 677.769531 145.414062 677.769531 168.707031 677.769531 168.707031 C 677.769531 168.707031 706.652344 168.707031 706.652344 168.707031 C 706.652344 168.707031 706.652344 145.414062 706.652344 145.414062 Z M 706.652344 145.414062 " fill-opacity="1" fill-rule="nonzero"/><path fill="#fffbfb" d="M 678.929688 131.136719 C 678.929688 131.136719 705.375 131.136719 705.375 131.136719 C 705.375 131.136719 705.375 140.222656 705.375 140.222656 C 705.375 140.222656 678.929688 140.222656 678.929688 140.222656 C 678.929688 140.222656 678.929688 131.136719 678.929688 131.136719 Z M 678.929688 131.136719 " fill-opacity="1" fill-rule="nonzero"/><path fill="#1b1239" d="M 704.09375 132.414062 C 704.09375 132.414062 704.09375 138.945312 704.09375 138.945312 C 704.09375 138.945312 680.207031 138.945312 680.207031 138.945312 C 680.207031 138.945312 680.207031 132.414062 680.207031 132.414062 C 680.207031 132.414062 704.09375 132.414062 704.09375 132.414062 M 706.652344 129.855469 C 706.652344 129.855469 677.648438 129.855469 677.648438 129.855469 C 677.648438 129.855469 677.648438 141.503906 677.648438 141.503906 C 677.648438 141.503906 706.652344 141.503906 706.652344 141.503906 C 706.652344 141.503906 706.652344 129.855469 706.652344 129.855469 Z M 706.652344 129.855469 " fill-opacity="1" fill-rule="nonzero"/><path fill="#fffbfb" d="M 678.929688 174.167969 C 678.929688 174.167969 690.929688 174.167969 690.929688 174.167969 C 690.929688 174.167969 690.929688 179.296875 690.929688 179.296875 C 690.929688 179.296875 678.929688 179.296875 678.929688 179.296875 C 678.929688 179.296875 678.929688 174.167969 678.929688 174.167969 Z M 678.929688 174.167969 " fill-opacity="1" fill-rule="nonzero"/><path fill="#1b1239" d="M 689.65625 175.449219 C 689.65625 175.449219 689.65625 178.015625 689.65625 178.015625 C 689.65625 178.015625 680.210938 178.015625 680.210938 178.015625 C 680.210938 178.015625 680.210938 175.449219 680.210938 175.449219 C 680.210938 175.449219 689.65625 175.449219 689.65625 175.449219 M 692.214844 172.890625 C 692.214844 172.890625 677.652344 172.890625 677.652344 172.890625 C 677.652344 172.890625 677.652344 180.574219 677.652344 180.574219 C 677.652344 180.574219 692.214844 180.574219 692.214844 180.574219 C 692.214844 180.574219 692.214844 172.890625 692.214844 172.890625 Z M 692.214844 172.890625 " fill-opacity="1" fill-rule="nonzero"/><path fill="#fffbfb" d="M 698.492188 174.167969 C 698.492188 174.167969 705.375 174.167969 705.375 174.167969 C 705.375 174.167969 705.375 179.296875 705.375 179.296875 C 705.375 179.296875 698.492188 179.296875 698.492188 179.296875 C 698.492188 179.296875 698.492188 174.167969 698.492188 174.167969 Z M 698.492188 174.167969 " fill-opacity="1" fill-rule="nonzero"/><path fill="#1b1239" d="M 704.09375 175.449219 C 704.09375 175.449219 704.09375 178.015625 704.09375 178.015625 C 704.09375 178.015625 699.769531 178.015625 699.769531 178.015625 C 699.769531 178.015625 699.769531 175.449219 699.769531 175.449219 C 699.769531 175.449219 704.09375 175.449219 704.09375 175.449219 M 706.652344 172.890625 C 706.652344 172.890625 697.210938 172.890625 697.210938 172.890625 C 697.210938 172.890625 697.210938 180.574219 697.210938 180.574219 C 697.210938 180.574219 706.652344 180.574219 706.652344 180.574219 C 706.652344 180.574219 706.652344 172.890625 706.652344 172.890625 Z M 706.652344 172.890625 " fill-opacity="1" fill-rule="nonzero"/><path fill="#1b1239" d="M 558.574219 143.253906 C 556.148438 142.585938 553.871094 141.496094 551.738281 139.980469 C 549.605469 138.464844 547.804688 136.574219 546.332031 134.308594 C 546.332031 134.308594 552.550781 130.03125 552.550781 130.03125 C 553.605469 131.511719 554.847656 132.820312 556.273438 133.964844 C 557.695312 135.105469 559.289062 135.921875 561.054688 136.40625 C 562.816406 136.894531 564.183594 136.953125 565.15625 136.589844 C 566.125 136.222656 566.738281 135.582031 566.992188 134.664062 C 567.164062 134.039062 567.175781 133.480469 567.035156 132.984375 C 566.894531 132.492188 566.632812 132.015625 566.246094 131.550781 C 565.859375 131.089844 565.355469 130.617188 564.742188 130.128906 C 564.125 129.644531 563.441406 129.097656 562.699219 128.5 C 562.699219 128.5 558.617188 125.238281 558.617188 125.238281 C 557.722656 124.597656 556.890625 123.855469 556.117188 123.007812 C 555.339844 122.164062 554.710938 121.25 554.234375 120.265625 C 553.753906 119.285156 553.445312 118.210938 553.3125 117.046875 C 553.175781 115.882812 553.292969 114.640625 553.65625 113.320312 C 554.0625 111.847656 554.765625 110.550781 555.765625 109.421875 C 556.769531 108.296875 557.984375 107.40625 559.410156 106.75 C 560.835938 106.09375 562.433594 105.714844 564.199219 105.609375 C 565.96875 105.503906 567.828125 105.71875 569.773438 106.253906 C 571.980469 106.859375 574 107.851562 575.835938 109.226562 C 577.667969 110.601562 579.203125 112.289062 580.429688 114.289062 C 580.429688 114.289062 574.882812 118.277344 574.882812 118.277344 C 573.886719 117.015625 572.832031 115.960938 571.722656 115.121094 C 570.609375 114.28125 569.167969 113.617188 567.40625 113.132812 C 566.046875 112.757812 564.878906 112.730469 563.898438 113.054688 C 562.921875 113.378906 562.285156 114.074219 561.992188 115.140625 C 561.695312 116.207031 562.011719 117.171875 562.941406 118.039062 C 563.867188 118.910156 565.128906 119.898438 566.71875 121.007812 C 566.71875 121.007812 570.558594 124.082031 570.558594 124.082031 C 572.703125 125.621094 574.253906 127.351562 575.203125 129.273438 C 576.15625 131.199219 576.285156 133.425781 575.585938 135.960938 C 575.171875 137.46875 574.464844 138.808594 573.472656 139.976562 C 572.476562 141.144531 571.253906 142.074219 569.800781 142.761719 C 568.347656 143.445312 566.671875 143.855469 564.777344 143.984375 C 562.882812 144.117188 560.816406 143.871094 558.574219 143.253906 Z M 558.574219 143.253906 " fill-opacity="1" fill-rule="nonzero"/><path fill="#1b1239" d="M 555.625 146.195312 C 555.625 146.195312 567.902344 101.621094 567.902344 101.621094 C 567.902344 101.621094 571.347656 102.570312 571.347656 102.570312 C 571.347656 102.570312 559.070312 147.144531 559.070312 147.144531 C 559.070312 147.144531 555.625 146.195312 555.625 146.195312 Z M 555.625 146.195312 " fill-opacity="1" fill-rule="nonzero"/><path fill="#fffbfb" d="M 693.835938 355.984375 C 693.835938 355.984375 704.382812 357.917969 704.382812 357.917969 C 704.382812 357.917969 715.957031 349.628906 707.910156 338.496094 C 703.386719 332.238281 696.792969 326.742188 690.09375 322.976562 C 686.734375 321.089844 682.738281 319.199219 678.777344 319.363281 C 674.222656 319.554688 671.167969 322.898438 666.363281 320.714844 C 663.183594 319.273438 663.734375 316.597656 662.015625 314.191406 C 659.722656 310.980469 654.753906 309.8125 651.167969 309.125 C 643.78125 307.714844 636.410156 305.886719 629.570312 309.992188 C 622.9375 313.964844 623.238281 320.847656 626.640625 327.125 C 626.640625 327.125 636.414062 318.960938 636.414062 318.960938 C 636.414062 318.960938 654.890625 321.304688 654.890625 321.304688 C 654.890625 321.304688 688.390625 336.371094 688.390625 336.371094 C 688.390625 336.371094 699.828125 347.9375 699.828125 347.9375 C 699.828125 347.9375 693.835938 355.984375 693.835938 355.984375 Z M 693.835938 355.984375 " fill-opacity="1" fill-rule="nonzero"/><path fill="#fffbfb" d="M 669.953125 355.902344 C 674.917969 354.824219 679.128906 356.375 683.335938 358.171875 C 685.65625 356.515625 687.148438 354.179688 685.15625 351.105469 C 678.707031 341.144531 664.839844 347.605469 656.070312 349.683594 C 651.800781 350.691406 646.757812 351.929688 641.6875 352.496094 C 643.363281 356.066406 644.15625 359.257812 644.527344 361.425781 C 656.359375 358.855469 669.890625 355.914062 669.953125 355.902344 Z M 669.953125 355.902344 " fill-opacity="1" fill-rule="nonzero"/><path fill="#1b1239" d="M 624.0625 334.695312 C 633.746094 339.703125 638.925781 346.609375 641.6875 352.496094 C 646.757812 351.929688 651.800781 350.691406 656.066406 349.683594 C 664.839844 347.605469 678.707031 341.144531 685.15625 351.105469 C 687.152344 354.179688 685.65625 356.515625 683.335938 358.171875 C 686.0625 359.335938 688.792969 360.597656 691.722656 361.320312 C 698.597656 363.007812 704.9375 361.097656 705.628906 353.15625 C 705.628906 353.15625 708.699219 339.949219 683.636719 329.984375 C 683.636719 329.984375 649.515625 317.234375 649.363281 317.175781 C 642.007812 314.429688 629.75 315.738281 627.320312 324.621094 C 626.289062 328.375 625.429688 331.746094 624.0625 334.695312 Z M 624.0625 334.695312 " fill-opacity="1" fill-rule="nonzero"/><path stroke-linecap="round" transform="matrix(0.426387, 0.00744261, -0.00744261, 0.426387, 662.189643, 332.291407)" fill="none" stroke-linejoin="round" d="M 63.158622 23.425964 C 63.158622 23.425964 33.905965 1.867055 1.912753 13.822127 C -5.250694 16.484839 -13.824249 17.614748 -21.270233 15.637624 C -41.997457 10.136202 -38.819074 -25.061936 -63.158587 -23.372832 " stroke="#020203" stroke-width="6" stroke-opacity="1" stroke-miterlimit="4"/><path stroke-linecap="round" transform="matrix(0.426387, 0.00744261, -0.00744261, 0.426387, 671.438545, 348.911704)" fill="none" stroke-linejoin="round" d="M 6.452029 15.503726 C 6.452029 15.503726 -4.878515 7.218159 -6.456897 -15.501741 " stroke="#020203" stroke-width="6" stroke-opacity="1" stroke-miterlimit="4"/><path stroke-linecap="round" transform="matrix(0.426387, 0.00744261, -0.00744261, 0.426387, 658.603466, 351.521894)" fill="none" stroke-linejoin="round" d="M 5.394087 14.842347 C 5.394087 14.842347 -8.13038 3.681788 -4.89001 -14.843907 " stroke="#020203" stroke-width="6" stroke-opacity="1" stroke-miterlimit="4"/><path stroke-linecap="round" transform="matrix(0.426387, 0.00744261, -0.00744261, 0.426387, 648.315031, 353.061163)" fill="none" stroke-linejoin="round" d="M 6.744086 16.165006 C 6.744086 16.165006 -4.903674 10.175295 -6.73769 -16.168008 " stroke="#020203" stroke-width="6" stroke-opacity="1" stroke-miterlimit="4"/><path fill="#020203" d="M 624.0625 334.695312 C 622.144531 338.835938 619.226562 342.136719 613.417969 344.476562 C 613.417969 344.476562 618.234375 351.773438 618.234375 351.773438 C 618.234375 351.773438 625.878906 350.660156 625.878906 350.660156 C 630.484375 352.914062 636.097656 353.117188 641.6875 352.496094 C 638.925781 346.609375 633.75 339.703125 624.0625 334.695312 Z M 624.0625 334.695312 " fill-opacity="1" fill-rule="nonzero"/><path fill="#020203" d="M 625.878906 350.660156 C 625.878906 350.660156 618.234375 351.773438 618.234375 351.773438 C 618.234375 351.773438 627.101562 365.210938 627.101562 365.210938 C 627.101562 365.210938 635.300781 363.429688 644.523438 361.425781 C 644.152344 359.257812 643.363281 356.066406 641.683594 352.496094 C 636.09375 353.113281 630.480469 352.910156 625.875 350.660156 C 625.875 350.660156 625.878906 350.660156 625.878906 350.660156 Z M 625.878906 350.660156 " fill-opacity="1" fill-rule="nonzero"/><path fill="#a594f9" d="M 623.582031 337.464844 C 579.199219 342.417969 558.765625 375.664062 558.765625 375.664062 C 554.890625 356.882812 543.507812 339.882812 543.507812 339.882812 C 546.507812 326.347656 542.082031 315.15625 537.875 308.175781 C 542.960938 334.820312 522.058594 361.804688 513.753906 371.273438 C 528.898438 394.636719 546.386719 406.757812 546.386719 406.757812 C 565.609375 421.21875 586.925781 402.882812 586.925781 402.882812 C 586.925781 402.882812 641.144531 359.15625 641.144531 359.15625 C 632.242188 344.113281 623.578125 337.46875 623.578125 337.46875 C 623.578125 337.46875 623.582031 337.464844 623.582031 337.464844 Z M 623.582031 337.464844 " fill-opacity="1" fill-rule="nonzero"/><path fill="#1b1239" d="M 633.070312 347.277344 C 632.769531 346.964844 632.484375 346.640625 632.230469 346.292969 C 632.074219 346.171875 631.953125 346.023438 631.855469 345.855469 C 631.617188 345.933594 631.367188 346.019531 631.09375 346.121094 C 618.082031 350.902344 606.121094 361.367188 595.570312 370.601562 C 593.742188 372.199219 592.015625 373.710938 590.292969 375.1875 C 589.367188 375.980469 588.402344 376.824219 587.410156 377.691406 C 579.191406 384.875 568.964844 393.824219 559.53125 392.871094 C 555.300781 392.449219 551.601562 390.09375 548.226562 385.679688 C 545.808594 382.515625 543.960938 378.507812 542.171875 374.636719 C 541.4375 373.042969 540.679688 371.398438 539.902344 369.867188 C 539.902344 369.867188 517.21875 325.152344 517.21875 325.152344 C 516.898438 324.523438 516.128906 324.269531 515.5 324.589844 C 514.867188 324.910156 514.617188 325.679688 514.9375 326.308594 C 514.9375 326.308594 537.617188 371.023438 537.617188 371.023438 C 538.375 372.515625 539.089844 374.066406 539.847656 375.707031 C 541.695312 379.707031 543.605469 383.84375 546.195312 387.234375 C 549.96875 392.171875 554.371094 394.925781 559.277344 395.417969 C 559.730469 395.464844 560.183594 395.488281 560.636719 395.496094 C 570.722656 395.671875 580.871094 386.804688 589.09375 379.617188 C 590.078125 378.757812 591.035156 377.917969 591.957031 377.128906 C 593.691406 375.644531 595.421875 374.132812 597.253906 372.527344 C 607.640625 363.441406 619.410156 353.140625 631.976562 348.523438 C 632.390625 348.371094 632.738281 348.253906 633.070312 348.160156 C 633.234375 348.109375 633.375 348.019531 633.5 347.917969 C 633.363281 347.699219 633.21875 347.488281 633.070312 347.277344 Z M 633.070312 347.277344 " fill-opacity="1" fill-rule="nonzero"/><path stroke-linecap="round" transform="matrix(0.426387, 0.00744261, -0.00744261, 0.426387, 559.010484, 385.975577)" fill="none" stroke-linejoin="round" d="M -0.996084 -24.166074 C -0.996084 -24.166074 3.480914 7.160637 -0.995233 24.168809 " stroke="#020203" stroke-width="6" stroke-opacity="1" stroke-miterlimit="4"/><path fill="#020203" d="M 537.875 308.175781 C 534.871094 303.195312 531.976562 300.355469 531.976562 300.355469 C 531.976562 300.355469 501.421875 347.546875 501.421875 347.546875 C 504.980469 356.429688 509.265625 364.34375 513.753906 371.269531 C 522.058594 361.800781 542.960938 334.816406 537.875 308.171875 C 537.875 308.171875 537.875 308.175781 537.875 308.175781 Z M 537.875 308.175781 " fill-opacity="1" fill-rule="nonzero"/><path fill="#fffbfb" d="M 384.820312 508 C 384.820312 508 375.59375 513.457031 375.59375 513.457031 C 375.59375 513.457031 372.304688 527.308594 385.679688 530.425781 C 393.179688 532.175781 401.75 531.996094 409.261719 530.472656 C 413.015625 529.710938 417.285156 528.546875 420.15625 525.847656 C 423.503906 522.691406 423.59375 518.09375 428.691406 516.574219 C 431.25 515.8125 431.804688 516.839844 434.035156 517.65625 C 437.015625 518.75 439.589844 518.882812 442.789062 517.746094 C 447.171875 516.1875 454.515625 512.59375 457.875 509.269531 C 457.875 509.269531 474.246094 493.078125 454.460938 485.671875 C 454.460938 485.671875 452.445312 498.246094 452.445312 498.246094 C 452.445312 498.246094 436.960938 508.605469 436.960938 508.605469 C 436.960938 508.605469 401.796875 519.226562 401.796875 519.226562 C 401.796875 519.226562 385.574219 518.003906 385.574219 518.003906 C 385.574219 518.003906 384.8125 507.996094 384.8125 507.996094 C 384.8125 507.996094 384.820312 508 384.820312 508 Z M 384.820312 508 " fill-opacity="1" fill-rule="nonzero"/><path fill="#fffbfb" d="M 402.890625 492.382812 C 399.851562 496.453125 395.664062 498.042969 391.304688 499.453125 C 390.640625 502.222656 391.046875 504.964844 394.566406 505.980469 C 405.972656 509.261719 412.191406 495.285156 417.449219 487.960938 C 420.003906 484.402344 423.003906 480.152344 426.453125 476.402344 C 422.847656 474.808594 420.15625 472.917969 418.453125 471.53125 C 411.210938 481.238281 402.933594 492.328125 402.890625 492.382812 Z M 402.890625 492.382812 " fill-opacity="1" fill-rule="nonzero"/><path fill="#1b1239" d="M 451.433594 478.269531 C 440.839844 480.847656 432.402344 479.03125 426.453125 476.402344 C 423 480.152344 420.003906 484.402344 417.449219 487.960938 C 412.195312 495.289062 405.972656 509.265625 394.570312 505.980469 C 391.046875 504.964844 390.640625 502.222656 391.304688 499.453125 C 388.480469 500.363281 385.597656 501.199219 382.910156 502.582031 C 376.613281 505.820312 373.085938 511.417969 377.777344 517.863281 C 377.777344 517.863281 384.128906 529.839844 409.582031 520.917969 C 409.582031 520.917969 443.691406 508.148438 443.84375 508.089844 C 451.199219 505.335938 459.585938 496.304688 455.59375 488.011719 C 453.90625 484.5 452.339844 481.390625 451.433594 478.269531 Z M 451.433594 478.269531 " fill-opacity="1" fill-rule="nonzero"/><path fill="#020203" d="M 439.589844 467.414062 C 439.589844 467.414062 444.628906 461.558594 444.628906 461.558594 C 444.628906 461.558594 429.117188 457.238281 429.117188 457.238281 C 429.117188 457.238281 424.101562 463.964844 418.457031 471.53125 C 420.160156 472.917969 422.851562 474.808594 426.460938 476.402344 C 430.273438 472.269531 434.636719 468.738281 439.59375 467.414062 C 439.59375 467.414062 439.589844 467.414062 439.589844 467.414062 Z M 439.589844 467.414062 " fill-opacity="1" fill-rule="nonzero"/><path fill="#020203" d="M 451.433594 478.269531 C 450.167969 473.886719 450.199219 469.476562 453.042969 463.902344 C 453.042969 463.902344 444.625 461.558594 444.625 461.558594 C 444.625 461.558594 439.585938 467.414062 439.585938 467.414062 C 434.632812 468.738281 430.261719 472.269531 426.449219 476.402344 C 432.402344 479.03125 440.839844 480.84375 451.429688 478.269531 C 451.429688 478.269531 451.433594 478.269531 451.433594 478.269531 Z M 451.433594 478.269531 " fill-opacity="1" fill-rule="nonzero"/><path stroke-linecap="round" transform="matrix(0.426387, 0.00744261, -0.00744261, 0.426387, 424.249898, 504.257384)" fill="none" stroke-linejoin="round" d="M -63.010392 25.753852 C -63.010392 25.753852 -26.792069 22.822178 -10.486841 -7.199936 C -6.838603 -13.905542 -1.106752 -20.381841 5.796467 -23.782074 C 25.053236 -33.242834 45.753822 -4.599561 63.005738 -21.849057 " stroke="#020203" stroke-width="6" stroke-opacity="1" stroke-miterlimit="4"/><path stroke-linecap="round" transform="matrix(0.426387, 0.00744261, -0.00744261, 0.426387, 406.35979, 498.62822)" fill="none" stroke-linejoin="round" d="M -15.045565 -7.449564 C -15.045565 -7.449564 -1.067863 -8.637157 15.043995 7.471134 " stroke="#020203" stroke-width="6" stroke-opacity="1" stroke-miterlimit="4"/><path stroke-linecap="round" transform="matrix(0.426387, 0.00744261, -0.00744261, 0.426387, 414.249275, 488.305146)" fill="none" stroke-linejoin="round" d="M -13.62029 -7.825256 C -13.62029 -7.825256 3.897337 -8.277608 13.623651 7.823046 " stroke="#020203" stroke-width="6" stroke-opacity="1" stroke-miterlimit="4"/><path stroke-linecap="round" transform="matrix(0.426387, 0.00744261, -0.00744261, 0.426387, 421.08342, 480.287803)" fill="none" stroke-linejoin="round" d="M -15.693074 -7.675112 C -15.693074 -7.675112 -2.97682 -10.801199 15.699182 7.873298 " stroke="#020203" stroke-width="6" stroke-opacity="1" stroke-miterlimit="4"/><path fill="#020203" d="M 533.675781 299.066406 C 533.1875 298.214844 532.648438 297.382812 532.042969 296.570312 C 532.042969 296.570312 512.320312 269.847656 512.320312 269.847656 C 512.320312 269.847656 480.054688 291.28125 480.054688 291.28125 C 480.054688 291.28125 477.695312 301.71875 479.46875 311.257812 C 488.859375 306.042969 509.820312 296.480469 533.675781 299.070312 C 533.675781 299.070312 533.675781 299.066406 533.675781 299.066406 Z M 533.675781 299.066406 " fill-opacity="1" fill-rule="nonzero"/><path fill="#a594f9" d="M 479.476562 311.257812 C 479.980469 313.984375 480.828125 316.640625 482.164062 318.957031 C 482.164062 318.957031 460.019531 345.300781 451.3125 363.09375 C 451.3125 363.09375 443.339844 373.648438 435.875 401.007812 C 435.875 401.007812 419.332031 467.15625 419.332031 467.15625 C 419.332031 467.15625 429.515625 481.082031 457.285156 472.78125 C 457.285156 472.78125 470.421875 440.9375 475.417969 410.476562 C 475.417969 410.476562 475.804688 396.726562 489.136719 383.851562 C 502.367188 370.789062 518.628906 358.796875 528.1875 342.578125 C 535.554688 330.070312 541.527344 312.621094 533.683594 299.066406 C 509.828125 296.476562 488.867188 306.039062 479.480469 311.25 C 479.480469 311.25 479.476562 311.257812 479.476562 311.257812 Z M 479.476562 311.257812 " fill-opacity="1" fill-rule="nonzero"/><path fill="#1b1239" d="M 515.722656 303.210938 C 515.582031 301.796875 515.355469 300.511719 515.078125 299.335938 C 514.226562 299.484375 513.363281 299.59375 512.503906 299.617188 C 512.804688 300.816406 513.054688 302.152344 513.195312 303.648438 C 513.8125 310.261719 512.398438 321.113281 502.199219 335.222656 C 502.199219 335.222656 470.558594 376.726562 470.558594 376.726562 C 469.445312 377.863281 457.4375 390.707031 452.554688 419.894531 C 452.554688 419.894531 438.417969 475.089844 438.417969 475.089844 C 438.394531 475.175781 438.382812 475.265625 438.378906 475.351562 C 438.425781 475.351562 438.472656 475.339844 438.523438 475.347656 C 439.332031 475.429688 440.144531 475.429688 440.957031 475.480469 C 440.957031 475.480469 455.046875 420.476562 455.046875 420.476562 C 455.054688 420.441406 455.0625 420.40625 455.070312 420.367188 C 459.929688 391.253906 472.304688 378.597656 472.429688 378.476562 C 472.46875 378.433594 472.507812 378.390625 472.542969 378.34375 C 472.542969 378.34375 504.253906 336.75 504.253906 336.75 C 515.011719 321.867188 516.429688 310.292969 515.722656 303.210938 Z M 515.722656 303.210938 " fill-opacity="1" fill-rule="nonzero"/><path stroke-linecap="round" transform="matrix(0.426387, 0.00744261, -0.00744261, 0.426387, 496.88467, 314.824846)" fill="none" stroke-linejoin="round" d="M -34.344425 10.290645 C -34.344425 10.290645 -3.683727 -10.298575 34.344821 -10.293592 " stroke="#020203" stroke-width="6" stroke-opacity="1" stroke-miterlimit="4"/><path fill="#020203" d="M 642.308594 222.691406 C 642.308594 222.691406 628.1875 248.863281 628.1875 248.863281 C 628.1875 248.863281 645.316406 248.863281 645.316406 248.863281 C 650.671875 237.578125 651.964844 227.882812 652.234375 222.679688 C 652.234375 222.679688 642.308594 222.695312 642.308594 222.695312 C 642.308594 222.695312 642.308594 222.691406 642.308594 222.691406 Z M 642.308594 222.691406 " fill-opacity="1" fill-rule="nonzero"/><path fill="#8060f6" d="M 702.660156 234.082031 C 689.5 232.152344 699.128906 229.90625 699.128906 229.90625 C 710.6875 229.90625 708.757812 224.351562 708.757812 224.351562 C 708.757812 218.792969 702.660156 221.238281 702.660156 221.238281 C 702.660156 221.238281 691.742188 222.6875 689.820312 222.6875 C 675.695312 225.425781 683.398438 218.601562 683.398438 218.601562 C 689.53125 212.46875 685 209.230469 685 209.230469 C 680.929688 205.160156 675.691406 212.546875 675.691406 212.546875 C 668.15625 220.082031 659.960938 222.65625 659.960938 222.65625 C 659.960938 222.65625 652.230469 222.667969 652.230469 222.667969 C 651.960938 227.871094 650.667969 237.574219 645.3125 248.855469 C 645.3125 248.855469 664.773438 248.855469 664.773438 248.855469 C 670.203125 248.855469 675.394531 247.796875 679.695312 252.0625 C 682.78125 255.117188 684.882812 262.421875 690.460938 261.363281 C 697.203125 260.078125 692.0625 252.878906 692.0625 252.878906 C 701.054688 259.164062 702.65625 255.136719 702.65625 255.136719 C 707.375 250.417969 699.125 247.722656 699.125 247.722656 C 691.101562 242.4375 699.125 242.566406 699.125 242.566406 C 709.078125 244 708.878906 239.527344 708.878906 239.527344 C 710.28125 233.429688 702.65625 234.070312 702.65625 234.070312 C 702.65625 234.070312 702.660156 234.082031 702.660156 234.082031 Z M 702.660156 234.082031 " fill-opacity="1" fill-rule="nonzero"/><path fill="#1b1239" d="M 636.285156 220.496094 C 624.503906 220.496094 585.007812 218.605469 585.007812 218.605469 C 566.988281 214.289062 543.332031 214.078125 543.332031 214.078125 C 543.332031 214.078125 534.769531 218.605469 534.769531 218.605469 C 534.769531 218.605469 538.65625 239.898438 538.65625 239.898438 C 538.65625 239.898438 546.289062 234.742188 546.289062 234.742188 C 546.289062 234.742188 548.785156 234.082031 548.785156 234.082031 C 548.785156 234.082031 552.800781 237.722656 553.644531 256.5625 C 555.878906 254.902344 557.289062 255.144531 557.289062 255.144531 C 557.289062 255.144531 580.847656 252.125 580.847656 252.125 C 580.847656 252.125 633.511719 252.125 633.511719 252.125 C 645.640625 246.332031 649.449219 222.691406 649.449219 222.691406 C 645.984375 215.53125 636.285156 220.496094 636.285156 220.496094 Z M 636.285156 220.496094 " fill-opacity="1" fill-rule="nonzero"/><path fill="#020203" d="M 548.785156 234.082031 C 548.785156 234.082031 546.289062 234.742188 546.289062 234.742188 C 546.289062 234.742188 538.65625 239.898438 538.65625 239.898438 C 538.65625 239.898438 544.34375 271.082031 544.34375 271.082031 C 547.917969 262.304688 551.257812 258.34375 553.644531 256.5625 C 552.800781 237.722656 548.785156 234.082031 548.785156 234.082031 Z M 548.785156 234.082031 " fill-opacity="1" fill-rule="nonzero"/><path stroke-linecap="round" transform="matrix(0.426452, 0, 0, 0.426452, 594.161055, 224.049482)" fill="none" stroke-linejoin="round" d="M 24.115862 -10.723175 C 1.573392 -7.334019 -24.110917 10.729268 -24.110917 10.729268 " stroke="#020203" stroke-width="6" stroke-opacity="1" stroke-miterlimit="4"/><path fill="#8060f6" d="M 438.921875 161.414062 C 438.921875 161.414062 409.792969 122.433594 409.792969 122.433594 C 409.792969 122.433594 401.078125 111.914062 400.0625 96.179688 C 400.0625 96.179688 399.578125 88.730469 393.390625 91.625 C 393.390625 91.625 389.375 93.824219 389.945312 102.65625 C 389.945312 102.65625 392.367188 114.417969 392.367188 114.417969 C 392.367188 114.417969 393.894531 125.125 385.078125 117.382812 C 385.078125 117.382812 378.765625 109.753906 374.792969 116.941406 C 374.792969 116.941406 372.117188 120.582031 379.90625 127.417969 C 379.90625 127.417969 417.773438 181.511719 417.773438 181.511719 C 417.773438 181.511719 438.921875 161.417969 438.921875 161.417969 C 438.921875 161.417969 438.921875 161.414062 438.921875 161.414062 Z M 438.921875 161.414062 " fill-opacity="1" fill-rule="nonzero"/><path fill="#1b1239" d="M 457.867188 186.800781 C 457.867188 186.800781 434.472656 149.886719 434.472656 149.886719 C 434.472656 149.886719 415.914062 162.644531 410.804688 178.277344 C 410.804688 178.277344 408.785156 183.847656 417.402344 185.671875 C 417.402344 185.671875 428.375 208.085938 442.957031 218.023438 C 442.957031 218.023438 445.328125 228.414062 445.328125 228.414062 C 445.328125 228.414062 436.746094 242.90625 427.957031 248.921875 C 427.957031 248.921875 459.878906 245.570312 487.34375 211.25 C 484.789062 210.652344 470.765625 206.574219 457.867188 186.800781 Z M 457.867188 186.800781 " fill-opacity="1" fill-rule="nonzero"/><path stroke-linecap="round" transform="matrix(0.425563, -0.0275199, 0.0275199, 0.425563, 442.997228, 170.86814)" fill="none" stroke-linejoin="round" d="M 8.123874 -4.874151 C 8.123874 -4.874151 -4.874457 -4.861067 -8.119752 4.869942 " stroke="#020203" stroke-width="6" stroke-opacity="1" stroke-miterlimit="4"/><path stroke-linecap="round" transform="matrix(0.425563, -0.0275199, 0.0275199, 0.425563, 452.384398, 222.157609)" fill="none" stroke-linejoin="round" d="M -17.449585 13.573173 C -17.449585 13.573173 2.202311 -7.2866 17.441984 -13.570874 " stroke="#020203" stroke-width="6" stroke-opacity="1" stroke-miterlimit="4"/><path fill="#020203" d="M 496.292969 212.550781 C 496.292969 212.550781 478.859375 222.785156 472.222656 204.402344 C 472.222656 204.402344 467.796875 197.632812 474.4375 190.992188 C 474.4375 190.992188 466.414062 186.289062 474.160156 176.335938 C 474.160156 176.335938 463.375 174.398438 472.5 165.273438 C 472.5 165.273438 481.492188 156.007812 486.609375 161.125 C 486.609375 161.125 492.757812 156.976562 494.246094 163.335938 C 494.246094 163.335938 503.769531 159.742188 508.882812 167.210938 C 508.882812 167.210938 520.238281 166.105469 523.480469 180.484375 C 523.480469 180.484375 535.898438 181.875 532.136719 194.871094 C 532.136719 194.871094 542.757812 200.105469 529.484375 207.71875 C 529.484375 207.71875 514.839844 228.578125 496.300781 212.550781 C 496.300781 212.550781 496.292969 212.550781 496.292969 212.550781 Z M 496.292969 212.550781 " fill-opacity="1" fill-rule="nonzero"/><path fill="#020203" d="M 487.832031 236.523438 C 485.617188 236.820312 483.753906 236 482.867188 233.136719 C 481.976562 230.238281 483.960938 226.644531 485.574219 224.347656 C 485.605469 224.304688 492.1875 214.957031 496.550781 208.746094 C 477.132812 208.976562 466.632812 212.597656 466.632812 212.597656 C 455.320312 243.773438 462.402344 258.125 465.445312 262.402344 C 471.441406 259.957031 481.480469 253.472656 487.828125 236.519531 C 487.828125 236.519531 487.832031 236.523438 487.832031 236.523438 Z M 487.832031 236.523438 " fill-opacity="1" fill-rule="nonzero"/><path fill="#fffbfb" d="M 529.757812 290.652344 C 512.449219 294.382812 514.015625 286.917969 514.015625 286.917969 C 514.015625 286.917969 515.503906 275.382812 515.503906 275.382812 C 517.832031 254.515625 507.023438 244.84375 507.023438 244.84375 C 498.199219 240.09375 505.285156 233.308594 505.285156 233.308594 C 512.996094 227.972656 517.445312 218.023438 519.902344 210.035156 C 518.394531 209.859375 516.921875 209.707031 515.472656 209.570312 C 511.128906 216.523438 506.230469 223.25 500.269531 228.839844 C 498.066406 230.910156 492.25 235.945312 487.828125 236.535156 C 481.480469 253.484375 471.449219 259.972656 465.445312 262.414062 C 466.148438 263.398438 466.632812 263.847656 466.632812 263.847656 C 474.777344 280.816406 477.488281 302.195312 477.488281 302.195312 C 474.605469 305.078125 477.148438 308.75 477.148438 308.75 C 497.171875 292.570312 532.121094 296.082031 532.121094 296.082031 C 532.121094 296.082031 529.746094 290.65625 529.746094 290.65625 C 529.746094 290.65625 529.757812 290.652344 529.757812 290.652344 Z M 529.757812 290.652344 " fill-opacity="1" fill-rule="nonzero"/><path stroke-linecap="round" transform="matrix(0.426452, 0, 0, 0.426452, 491.321785, 292.02976)" fill="none" stroke-linejoin="round" d="M 19.488775 -40.281668 C 6.142827 -26.94488 -32.411116 23.819186 -32.411116 23.819186 C -32.411116 23.819186 -47.506602 54.239155 -23.672589 32.383676 C -23.672589 32.383676 14.542439 -6.408424 37.121548 -13.186737 " stroke="#020203" stroke-width="6" stroke-opacity="1" stroke-miterlimit="4"/><path stroke-linecap="round" transform="matrix(0.426452, 0, 0, 0.426452, 474.048752, 261.55936)" fill="none" stroke-linejoin="round" d="M 20.156499 10.147353 C -4.199628 15.515044 -17.380698 5.356735 -17.380698 5.356735 C -17.380698 5.356735 -20.156142 -11.717285 -20.156142 -11.717285 " stroke="#020203" stroke-width="6" stroke-opacity="1" stroke-miterlimit="4"/><path fill="#1b1239" d="M 426.597656 246.199219 C 426.597656 246.199219 415.738281 248.230469 415.738281 248.230469 C 415.738281 248.230469 408.613281 266.554688 408.613281 266.554688 C 408.613281 266.554688 423.203125 271.964844 446.613281 258.738281 C 453.140625 255.054688 461.070312 259.503906 468.015625 256.230469 C 471.480469 254.597656 474.546875 252.167969 477.089844 249.316406 C 485.851562 239.472656 488.242188 225.265625 488.699219 212.550781 C 488.699219 212.550781 488.554688 212.515625 488.292969 212.433594 C 458.675781 244.910156 426.597656 246.191406 426.597656 246.191406 C 426.597656 246.191406 426.597656 246.199219 426.597656 246.199219 Z M 426.597656 246.199219 " fill-opacity="1" fill-rule="nonzero"/><path fill="#1b1239" d="M 437.796875 244.835938 C 437.796875 244.835938 473.089844 222.6875 473.089844 222.6875 C 473.089844 222.6875 482.128906 213.40625 482.128906 209.613281 C 482.128906 209.613281 490.484375 201.640625 496.296875 204.464844 C 496.296875 204.464844 491.753906 218.707031 491.753906 218.707031 C 491.753906 218.707031 476.148438 236.011719 437.800781 244.835938 C 437.800781 244.835938 437.796875 244.835938 437.796875 244.835938 Z M 437.796875 244.835938 " fill-opacity="1" fill-rule="nonzero"/><path stroke-linecap="round" transform="matrix(0.426452, 0, 0, 0.426452, 462.370364, 224.35695)" fill="none" stroke-linejoin="round" d="M 17.94592 25.708316 C -32.836466 50.064443 -57.623107 48.021789 -57.623107 48.021789 C -57.623107 48.021789 25.136427 -3.914742 25.136427 -3.914742 C 25.136427 -3.914742 46.332394 -34.572867 46.332394 -34.572867 C 46.332394 -34.572867 57.626529 -48.065373 57.626529 -48.065373 " stroke="#020203" stroke-width="6" stroke-opacity="1" stroke-miterlimit="4"/><path fill="#1b1239" d="M 524.644531 222.445312 C 531.539062 211.507812 544.347656 210.027344 544.347656 210.027344 C 529.078125 202.359375 514.015625 204.402344 514.015625 204.402344 C 514.015625 204.402344 515.960938 208.960938 515.960938 208.960938 C 515.960938 208.960938 519.90625 210.027344 519.90625 210.027344 C 517.449219 218.011719 513 227.960938 505.289062 233.300781 C 505.289062 233.300781 501.175781 237.246094 503.128906 241.226562 C 507.25 238.160156 515.269531 233.1875 526.355469 230.925781 C 526.355469 230.925781 545.03125 230.816406 524.648438 222.445312 C 524.648438 222.445312 524.644531 222.445312 524.644531 222.445312 Z M 524.644531 222.445312 " fill-opacity="1" fill-rule="nonzero"/><path fill="#1b1239" d="M 550.113281 259.769531 C 550.113281 221.425781 543.332031 214.078125 543.332031 214.078125 C 540.851562 213.515625 538.433594 213.011719 536.066406 212.554688 C 523.742188 217.667969 524.644531 222.445312 524.644531 222.445312 C 545.03125 230.820312 526.351562 230.925781 526.351562 230.925781 C 515.265625 233.1875 507.242188 238.160156 503.125 241.226562 C 503.734375 242.464844 504.925781 243.707031 507.019531 244.835938 C 507.019531 244.835938 517.828125 254.511719 515.5 275.375 C 515.5 275.375 514.011719 286.910156 514.011719 286.910156 C 514.011719 286.910156 512.445312 294.378906 529.75 290.640625 C 546.71875 285.890625 550.109375 279.445312 550.109375 279.445312 C 546.714844 271.976562 550.109375 259.761719 550.109375 259.761719 C 550.109375 259.761719 550.113281 259.769531 550.113281 259.769531 Z M 550.113281 259.769531 " fill-opacity="1" fill-rule="nonzero"/><path fill="#fffbfb" d="M 517.605469 241.652344 C 518.988281 241.652344 520.109375 242.773438 520.109375 244.15625 C 520.109375 245.539062 518.988281 246.65625 517.605469 246.65625 C 516.222656 246.65625 515.101562 245.539062 515.101562 244.15625 C 515.101562 242.773438 516.222656 241.652344 517.605469 241.652344 Z M 517.605469 241.652344 " fill-opacity="1" fill-rule="nonzero"/><path fill="#fffbfb" d="M 522.613281 261.339844 C 523.996094 261.339844 525.117188 262.460938 525.117188 263.84375 C 525.117188 265.226562 523.996094 266.347656 522.613281 266.347656 C 521.230469 266.347656 520.109375 265.226562 520.109375 263.84375 C 520.109375 262.460938 521.230469 261.339844 522.613281 261.339844 Z M 522.613281 261.339844 " fill-opacity="1" fill-rule="nonzero"/><path fill="#fffbfb" d="M 523.46875 277.464844 C 524.851562 277.464844 525.972656 278.585938 525.972656 279.96875 C 525.972656 281.351562 524.851562 282.472656 523.46875 282.472656 C 522.085938 282.472656 520.96875 281.351562 520.96875 279.96875 C 520.96875 278.585938 522.085938 277.464844 523.46875 277.464844 Z M 523.46875 277.464844 " fill-opacity="1" fill-rule="nonzero"/><path stroke-linecap="round" transform="matrix(0.426452, 0, 0, 0.426452, 519.595945, 226.889645)" fill="none" stroke-linejoin="round" d="M -38.62321 33.619064 C -38.62321 33.619064 -11.519119 12.734533 15.841448 9.464455 C 15.841448 9.464455 57.958586 9.308737 11.83858 -10.421649 C 11.83858 -10.421649 15.410934 -26.552201 38.622075 -33.61447 " stroke="#020203" stroke-width="6" stroke-opacity="1" stroke-miterlimit="4"/><path fill="#8060f6" d="M 496.558594 208.75 C 495.152344 210.742188 493.527344 213.054688 491.960938 215.28125 C 488.640625 219.996094 485.597656 224.320312 485.574219 224.351562 C 483.960938 226.644531 481.972656 230.242188 482.867188 233.140625 C 485.519531 241.726562 496.960938 231.941406 500.269531 228.832031 C 503.578125 225.726562 506.554688 222.277344 509.296875 218.632812 C 511.496094 215.707031 513.539062 212.65625 515.472656 209.5625 C 508.453125 208.898438 502.140625 208.6875 496.558594 208.75 Z M 496.558594 208.75 " fill-opacity="1" fill-rule="nonzero"/><path fill="#020203" d="M 496.390625 209.21875 C 494.988281 211.210938 493.363281 213.523438 491.792969 215.75 C 493.542969 217.496094 496.097656 219.023438 499.804688 219.945312 C 499.804688 219.945312 504.152344 221.632812 509.128906 219.101562 C 511.328125 216.175781 513.371094 213.125 515.308594 210.03125 C 508.289062 209.367188 501.972656 209.15625 496.390625 209.21875 Z M 496.390625 209.21875 " fill-opacity="1" fill-rule="nonzero"/><path fill="#8060f6" d="M 502.183594 218.226562 C 502.183594 218.226562 499.808594 217.761719 499.808594 217.761719 C 493.453125 216.515625 489.308594 210.355469 490.554688 203.996094 C 490.554688 203.996094 492.300781 195.070312 492.300781 195.070312 C 493.546875 188.714844 499.707031 184.570312 506.0625 185.816406 C 506.0625 185.816406 508.4375 186.28125 508.4375 186.28125 C 514.792969 187.527344 518.9375 193.6875 517.691406 200.042969 C 517.691406 200.042969 515.945312 208.96875 515.945312 208.96875 C 514.699219 215.328125 508.539062 219.46875 502.183594 218.226562 Z M 502.183594 218.226562 " fill-opacity="1" fill-rule="nonzero"/><path fill="#fffbfb" d="M 497.742188 205.085938 C 500.980469 207.003906 505.074219 209.191406 508.925781 207.277344 C 512.832031 206.703125 511.773438 209.554688 511.773438 209.554688 C 511.007812 213.457031 505.410156 214.46875 502.15625 213.953125 C 498.421875 213.355469 494.117188 210.105469 494.246094 206.125 C 494.246094 206.125 494.34375 203.082031 497.742188 205.089844 C 497.742188 205.089844 497.742188 205.085938 497.742188 205.085938 Z M 497.742188 205.085938 " fill-opacity="1" fill-rule="nonzero"/><path fill="#020203" d="M 488.566406 199.476562 C 488.566406 199.476562 493.875 197.574219 497.292969 189.09375 C 497.292969 189.09375 502.539062 193.710938 507.152344 189.09375 C 507.152344 189.09375 509.285156 195.316406 515.148438 193.898438 C 515.148438 193.898438 514.878906 201.007812 520.757812 201.007812 C 520.757812 201.007812 525.386719 191.542969 525.386719 191.542969 C 525.386719 191.542969 514.144531 177.804688 514.144531 177.804688 C 514.144531 177.804688 497.28125 176.863281 497.28125 176.863281 C 497.28125 176.863281 484.480469 185.605469 484.480469 185.605469 C 484.480469 185.605469 482.609375 192.164062 482.609375 192.164062 C 482.609375 192.164062 488.566406 199.476562 488.566406 199.476562 Z M 488.566406 199.476562 " fill-opacity="1" fill-rule="nonzero"/><path fill="#020203" d="M 498.601562 197.953125 C 499.441406 198.039062 500.054688 198.792969 499.964844 199.636719 C 499.875 200.476562 499.121094 201.085938 498.28125 200.996094 C 497.441406 200.910156 496.832031 200.15625 496.917969 199.316406 C 497.007812 198.472656 497.761719 197.863281 498.601562 197.953125 Z M 498.601562 197.953125 " fill-opacity="1" fill-rule="nonzero"/><path fill="#020203" d="M 510.566406 200.296875 C 511.410156 200.386719 512.019531 201.140625 511.929688 201.980469 C 511.84375 202.820312 511.089844 203.433594 510.246094 203.34375 C 509.40625 203.253906 508.796875 202.5 508.886719 201.660156 C 508.972656 200.820312 509.726562 200.210938 510.566406 200.296875 Z M 510.566406 200.296875 " fill-opacity="1" fill-rule="nonzero"/><path stroke-linecap="round" transform="matrix(0.426452, 0, 0, 0.426452, 511.243918, 197.142919)" fill="none" stroke-linejoin="round" d="M 6.499459 2.275432 C 6.499459 2.275432 1.983637 -5.968462 -6.498414 -0.271015 " stroke="#020203" stroke-width="4" stroke-opacity="1" stroke-miterlimit="4"/><path stroke-linecap="round" transform="matrix(0.426452, 0, 0, 0.426452, 499.631617, 194.869932)" fill="none" stroke-linejoin="round" d="M 6.497159 2.283534 C 6.497159 2.283534 1.981337 -5.969519 -6.500714 -0.272073 " stroke="#020203" stroke-width="4" stroke-opacity="1" stroke-miterlimit="4"/></svg>